<svg width="295" height="47" viewBox="0 0 295 47" fill="none" xmlns="http://www.w3.org/2000/svg">
<path d="M51.3139 46L57.3509 9.63636H63.9382L58.8246 40.478H74.8402L73.9169 46H51.3139ZM85.6712 46H78.6399L97.4787 9.63636H105.611L112.393 46H105.362L100.479 17.0938H100.195L85.6712 46ZM88.2635 31.7422H107.44L106.552 37.0334H87.3757L88.2635 31.7422ZM117.183 46L123.22 9.63636H137.14C139.768 9.63636 141.887 10.0507 143.497 10.8793C145.107 11.696 146.225 12.8146 146.853 14.2351C147.492 15.6555 147.658 17.2654 147.35 19.0646C147.101 20.5324 146.604 21.7931 145.858 22.8466C145.125 23.8883 144.225 24.7405 143.16 25.4034C142.094 26.0544 140.952 26.522 139.733 26.8061L139.662 27.1612C140.94 27.2204 142.112 27.611 143.177 28.3331C144.243 29.0552 145.048 30.0732 145.592 31.3871C146.137 32.6892 146.261 34.2576 145.965 36.0923C145.645 37.9744 144.906 39.6671 143.746 41.1705C142.586 42.6619 141.011 43.8397 139.023 44.7038C137.046 45.5679 134.672 46 131.903 46H117.183ZM124.694 40.4957H131.778C134.157 40.4957 135.957 40.04 137.176 39.1286C138.395 38.2053 139.123 37.0215 139.36 35.5774C139.537 34.5002 139.431 33.5296 139.04 32.6655C138.65 31.7895 138.005 31.103 137.105 30.6058C136.205 30.0968 135.081 29.8423 133.731 29.8423H126.452L124.694 40.4957ZM127.268 25.1016H133.785C134.921 25.1016 135.974 24.8944 136.945 24.4801C137.928 24.054 138.744 23.4562 139.395 22.6868C140.058 21.9055 140.467 20.9822 140.621 19.9169C140.869 18.5083 140.573 17.3482 139.733 16.4368C138.892 15.5253 137.507 15.0696 135.578 15.0696H128.902L127.268 25.1016ZM150.044 46L156.081 9.63636H179.732L178.809 15.1584H161.745L160.112 25.0305H175.95L175.027 30.5526H159.189L157.555 40.478H174.76L173.837 46H150.044ZM180.415 46L186.452 9.63636H193.04L187.926 40.478H203.942L203.018 46H180.415ZM221.36 9.63636L215.323 46H208.736L214.773 9.63636H221.36ZM258.376 9.63636L252.339 46H246.48L233.465 21.2308H233.181L229.044 46H222.456L228.493 9.63636H234.388L247.385 34.4233H247.723L251.824 9.63636H258.376ZM287.962 21.2486C287.831 20.2898 287.595 19.4316 287.251 18.674C286.908 17.9046 286.446 17.2536 285.866 16.7209C285.286 16.1764 284.582 15.7621 283.754 15.478C282.925 15.1939 281.96 15.0518 280.859 15.0518C278.906 15.0518 277.054 15.5431 275.302 16.5256C273.55 17.508 272.053 18.9522 270.81 20.858C269.567 22.7519 268.72 25.0601 268.271 27.7827C267.821 30.5289 267.844 32.8549 268.342 34.7607C268.839 36.6664 269.75 38.1165 271.076 39.1108C272.414 40.0933 274.094 40.5845 276.119 40.5845C277.977 40.5845 279.664 40.2294 281.179 39.5192C282.694 38.8089 283.949 37.8028 284.943 36.5007C285.949 35.1868 286.589 33.648 286.861 31.8842L288.317 32.1151H278.427L279.315 26.9659H294.07L293.324 31.3338C292.815 34.4588 291.708 37.1577 290.004 39.4304C288.311 41.6913 286.198 43.4373 283.665 44.6683C281.143 45.8875 278.379 46.4972 275.373 46.4972C272.035 46.4972 269.223 45.7455 266.939 44.2422C264.666 42.727 263.056 40.5786 262.109 37.7969C261.162 35.0033 261.009 31.6889 261.648 27.8537C262.121 24.9181 262.962 22.2962 264.169 19.9879C265.388 17.6797 266.88 15.7206 268.643 14.1108C270.419 12.4891 272.39 11.258 274.556 10.4176C276.722 9.56534 278.995 9.1392 281.374 9.1392C283.375 9.1392 285.198 9.43513 286.843 10.027C288.488 10.607 289.897 11.4356 291.069 12.5128C292.253 13.59 293.158 14.8684 293.786 16.348C294.413 17.8277 294.709 19.4612 294.673 21.2486H287.962Z" fill="black"/>
<path d="M31.5 0L26.25 5.73125L36.75 17.1937L42 11.4625L31.5 0ZM21 11.4625L0 34.3875V45.85H10.5L31.5 22.925L21 11.4625Z" fill="black"/>
</svg>
