<svg width="244" height="38" viewBox="0 0 244 38" fill="none" xmlns="http://www.w3.org/2000/svg">
<path d="M0.313921 37L6.35085 0.636363H12.9382L7.82457 31.478H23.8402L22.9169 37H0.313921ZM34.6712 37H27.6399L46.4787 0.636363H54.6108L61.3935 37H54.3622L49.4794 8.09375H49.1953L34.6712 37ZM37.2635 22.7422H56.4396L55.5518 28.0334H36.3757L37.2635 22.7422ZM66.1831 37L72.22 0.636363H86.1404C88.7683 0.636363 90.8871 1.05066 92.497 1.87926C94.1068 2.69602 95.2254 3.81463 95.8528 5.23508C96.492 6.65554 96.6577 8.26539 96.35 10.0646C96.1014 11.5324 95.6042 12.7931 94.8585 13.8466C94.1246 14.8883 93.225 15.7405 92.1596 16.4034C91.0943 17.0544 89.952 17.522 88.7328 17.8061L88.6618 18.1612C89.9402 18.2204 91.112 18.611 92.1774 19.3331C93.2427 20.0552 94.0476 21.0732 94.5922 22.3871C95.1367 23.6892 95.261 25.2576 94.965 27.0923C94.6454 28.9744 93.9056 30.6671 92.7456 32.1705C91.5855 33.6619 90.0112 34.8397 88.0225 35.7038C86.0458 36.5679 83.6724 37 80.9025 37H66.1831ZM73.6937 31.4957H80.7782C83.1575 31.4957 84.9567 31.04 86.176 30.1286C87.3952 29.2053 88.1232 28.0215 88.3599 26.5774C88.5375 25.5002 88.4309 24.5296 88.0403 23.6655C87.6497 22.7895 87.0046 22.103 86.1049 21.6058C85.2053 21.0968 84.0808 20.8423 82.7314 20.8423H75.4515L73.6937 31.4957ZM76.2683 16.1016H82.7846C83.921 16.1016 84.9745 15.8944 85.9451 15.4801C86.9276 15.054 87.7444 14.4562 88.3954 13.6868C89.0583 12.9055 89.4667 11.9822 89.6206 10.9169C89.8691 9.50828 89.5732 8.34825 88.7328 7.43679C87.8923 6.52533 86.5074 6.0696 84.5779 6.0696H77.9018L76.2683 16.1016ZM99.0444 37L105.081 0.636363H128.732L127.809 6.15838H110.745L109.112 16.0305H124.95L124.027 21.5526H108.189L106.555 31.478H123.76L122.837 37H99.0444ZM129.415 37L135.452 0.636363H142.04L136.926 31.478H152.942L152.018 37H129.415ZM170.36 0.636363L164.323 37H157.736L163.773 0.636363H170.36ZM207.376 0.636363L201.339 37H195.48L182.465 12.2308H182.181L178.044 37H171.456L177.493 0.636363H183.388L196.385 25.4233H196.723L200.824 0.636363H207.376ZM236.962 12.2486C236.831 11.2898 236.595 10.4316 236.251 9.67401C235.908 8.90459 235.446 8.25355 234.866 7.72088C234.286 7.17637 233.582 6.76207 232.754 6.47798C231.925 6.19389 230.96 6.05185 229.859 6.05185C227.906 6.05185 226.054 6.54309 224.302 7.52557C222.55 8.50805 221.053 9.95218 219.81 11.858C218.567 13.7519 217.72 16.0601 217.271 18.7827C216.821 21.5289 216.844 23.8549 217.342 25.7607C217.839 27.6664 218.75 29.1165 220.076 30.1108C221.414 31.0933 223.094 31.5845 225.119 31.5845C226.977 31.5845 228.664 31.2294 230.179 30.5192C231.694 29.8089 232.949 28.8028 233.943 27.5007C234.949 26.1868 235.589 24.648 235.861 22.8842L237.317 23.1151H227.427L228.315 17.9659H243.07L242.324 22.3338C241.815 25.4588 240.708 28.1577 239.004 30.4304C237.311 32.6913 235.198 34.4373 232.665 35.6683C230.143 36.8875 227.379 37.4972 224.373 37.4972C221.035 37.4972 218.223 36.7455 215.939 35.2422C213.666 33.727 212.056 31.5786 211.109 28.7969C210.162 26.0033 210.009 22.6889 210.648 18.8537C211.121 15.9181 211.962 13.2962 213.169 10.9879C214.388 8.67969 215.88 6.72064 217.643 5.11079C219.419 3.48911 221.39 2.25805 223.556 1.41761C225.722 0.56534 227.995 0.139203 230.374 0.139203C232.375 0.139203 234.198 0.435131 235.843 1.02699C237.488 1.60701 238.897 2.43561 240.069 3.51278C241.253 4.58996 242.158 5.86837 242.786 7.34801C243.413 8.82765 243.709 10.4612 243.673 12.2486H236.962Z" fill="white"/>
</svg>
